<svg xmlns="http://www.w3.org/2000/svg" width="285" height="28" fill="none" viewBox="0 0 285 28"><path fill="#fff" d="M43.257 1.679h5.083v10.54l8.925-10.54h6.018l-9.724 11.457 9.945 12.343h-6.188L48.34 14.395v11.084h-5.083zm27.52 24.207c-1.791 0-3.4-.385-4.828-1.156a8.545 8.545 0 0 1-3.35-3.247c-.804-1.394-1.206-2.963-1.206-4.709s.402-3.309 1.207-4.692a8.393 8.393 0 0 1 3.349-3.246c1.428-.782 3.037-1.173 4.828-1.173 1.79 0 3.4.39 4.828 1.173a8.427 8.427 0 0 1 3.349 3.23c.804 1.382 1.207 2.952 1.207 4.708s-.403 3.327-1.207 4.71a8.545 8.545 0 0 1-3.35 3.246c-1.427.771-3.037 1.156-4.827 1.156zm.017-4.437c.804 0 1.524-.198 2.159-.595a4.094 4.094 0 0 0 1.513-1.649c.374-.702.56-1.513.56-2.43s-.186-1.729-.56-2.432c-.363-.714-.867-1.263-1.513-1.649a4.075 4.075 0 0 0-2.176-.595c-.805 0-1.53.199-2.176.595-.646.386-1.156.935-1.53 1.65-.363.702-.544 1.512-.544 2.43s.181 1.729.544 2.431a4.215 4.215 0 0 0 1.53 1.65 4.162 4.162 0 0 0 2.193.594zm17.283 4.03c-1.009 0-1.904-.21-2.686-.63-.782-.43-1.394-1.025-1.836-1.785s-.663-1.62-.663-2.584v-8.16h-3.06V8.07h1.92c.432 0 .777-.13 1.038-.39.26-.272.39-.618.39-1.037V3.838h4.693V8.07h4.148v4.25h-4.165l.017 7.411c0 .431.136.788.408 1.071.283.284.64.425 1.07.425h2.67v4.25zm5.584-23.8h4.964v23.8h-4.964zm7.464 6.392h4.981v17.407h-4.981zm5.117-6.392v4.284h-5.236V1.679zm2.347 6.392h4.845v7.037h-1.173c0-1.507.255-2.822.765-3.944.522-1.122 1.264-1.983 2.227-2.583.964-.612 2.097-.918 3.4-.918 1.247 0 2.341.277 3.281.833.941.544 1.672 1.337 2.193 2.38.533 1.03.799 2.25.799 3.654v10.948h-4.981V15.38c0-.69-.124-1.286-.374-1.785a2.517 2.517 0 0 0-1.037-1.156c-.453-.26-.997-.39-1.632-.39-.657 0-1.241.147-1.751.441s-.906.714-1.19 1.258c-.272.533-.408 1.14-.408 1.82v9.91h-4.964zm29.81 17.815c-2.289 0-4.358-.527-6.205-1.58a11.401 11.401 0 0 1-4.335-4.404c-1.031-1.88-1.547-3.989-1.547-6.324s.516-4.436 1.547-6.306c1.043-1.882 2.488-3.35 4.335-4.403 1.847-1.066 3.916-1.598 6.205-1.598 1.995 0 3.831.413 5.508 1.24 1.677.828 3.026 1.944 4.046 3.35 1.02 1.394 1.587 2.912 1.7 4.555h-5.032c-.181-.793-.572-1.53-1.173-2.21-.589-.69-1.332-1.24-2.227-1.648a6.655 6.655 0 0 0-2.822-.612c-1.315 0-2.493.328-3.536.986-1.043.646-1.859 1.547-2.448 2.703-.578 1.155-.867 2.47-.867 3.943s.289 2.788.867 3.944c.589 1.156 1.405 2.063 2.448 2.72 1.043.646 2.221.97 3.536.97.997 0 1.938-.199 2.822-.596.895-.408 1.638-.946 2.227-1.615.601-.68.992-1.41 1.173-2.193h5.032c-.113 1.644-.68 3.157-1.7 4.54s-2.369 2.487-4.046 3.314c-1.677.816-3.513 1.224-5.508 1.224zm21.189 0c-1.79 0-3.4-.385-4.828-1.156a8.547 8.547 0 0 1-3.349-3.247c-.804-1.394-1.207-2.963-1.207-4.709s.403-3.309 1.207-4.692a8.396 8.396 0 0 1 3.349-3.246c1.428-.782 3.038-1.173 4.828-1.173 1.791 0 3.4.39 4.828 1.173a8.423 8.423 0 0 1 3.349 3.23c.805 1.382 1.207 2.952 1.207 4.708s-.402 3.327-1.207 4.71a8.54 8.54 0 0 1-3.349 3.246c-1.428.771-3.037 1.156-4.828 1.156zm.017-4.437c.805 0 1.525-.198 2.159-.595a4.09 4.09 0 0 0 1.513-1.649c.374-.702.561-1.513.561-2.43s-.187-1.729-.561-2.432c-.362-.714-.867-1.263-1.513-1.649a4.074 4.074 0 0 0-2.176-.595c-.804 0-1.53.199-2.176.595-.646.386-1.156.935-1.53 1.65-.362.702-.544 1.512-.544 2.43s.182 1.729.544 2.431a4.215 4.215 0 0 0 1.53 1.65 4.166 4.166 0 0 0 2.193.594zm10.756-13.378h4.845v7.037h-1.173c0-1.507.255-2.822.765-3.944.521-1.122 1.263-1.983 2.227-2.583.963-.612 2.096-.918 3.4-.918 1.246 0 2.34.277 3.281.833.94.544 1.671 1.337 2.193 2.38.532 1.03.799 2.25.799 3.654v10.948h-4.981V15.38c0-.69-.125-1.286-.374-1.785a2.522 2.522 0 0 0-1.037-1.156c-.454-.26-.998-.39-1.632-.39-.658 0-1.241.147-1.751.441s-.907.714-1.19 1.258c-.272.533-.408 1.14-.408 1.82v9.91h-4.964zm20.187 4.25h-3.077V8.07h3.077V6.303c0-.918.215-1.723.646-2.414.431-.703 1.037-1.247 1.819-1.632.782-.386 1.683-.578 2.703-.578h4.114v3.808h-2.958c-.408 0-.737.124-.986.374-.238.238-.357.56-.357.969v1.24h4.216v4.25h-4.216v13.158h-4.981zm15.395 9.298 9.554-8.347c.725-.657 1.269-1.314 1.632-1.972.362-.668.544-1.36.544-2.073 0-.68-.148-1.275-.442-1.785a3.009 3.009 0 0 0-1.258-1.207c-.533-.284-1.145-.425-1.836-.425-.748 0-1.411.158-1.989.476a3.439 3.439 0 0 0-1.343 1.36c-.318.578-.476 1.24-.476 1.989h-5.134c0-1.61.379-3.05 1.139-4.318.77-1.27 1.836-2.261 3.196-2.975 1.371-.714 2.924-1.071 4.658-1.071 1.677 0 3.173.323 4.488.969 1.314.646 2.34 1.547 3.077 2.703.736 1.144 1.099 2.448 1.088 3.91 0 1.36-.357 2.64-1.071 3.841-.703 1.202-1.774 2.392-3.213 3.57l-5.372 4.726h10.251v4.488h-17.493zm28.427-.272c.986 0 1.836-.3 2.55-.9.714-.613 1.258-1.502 1.632-2.67s.561-2.555.561-4.165c0-1.632-.187-3.031-.561-4.198-.374-1.168-.918-2.057-1.632-2.67-.714-.623-1.564-.934-2.55-.934s-1.836.306-2.55.918c-.714.612-1.258 1.501-1.632 2.669-.374 1.167-.561 2.56-.561 4.181s.187 3.015.561 4.182.918 2.057 1.632 2.67 1.564.918 2.55.918zm-.034 4.54c-1.984 0-3.723-.505-5.219-1.514-1.485-1.008-2.635-2.436-3.451-4.284-.816-1.858-1.224-4.017-1.224-6.476 0-2.471.408-4.636 1.224-6.494.816-1.87 1.966-3.31 3.451-4.318 1.496-1.02 3.235-1.53 5.219-1.53 1.994 0 3.74.51 5.236 1.53 1.507 1.008 2.669 2.448 3.485 4.318.827 1.858 1.241 4.023 1.241 6.494 0 2.459-.414 4.618-1.241 6.477-.816 1.847-1.978 3.275-3.485 4.284-1.496 1.008-3.242 1.513-5.236 1.513zm11.503-4.268 9.554-8.347c.726-.657 1.27-1.314 1.632-1.972.363-.668.544-1.36.544-2.073 0-.68-.147-1.275-.442-1.785a3.003 3.003 0 0 0-1.258-1.207c-.532-.284-1.144-.425-1.836-.425-.748 0-1.411.158-1.989.476a3.452 3.452 0 0 0-1.343 1.36c-.317.578-.476 1.24-.476 1.989h-5.134c0-1.61.38-3.05 1.139-4.318.771-1.27 1.836-2.261 3.196-2.975 1.372-.714 2.924-1.071 4.658-1.071 1.678 0 3.174.323 4.488.969 1.315.646 2.341 1.547 3.077 2.703.737 1.144 1.1 2.448 1.088 3.91 0 1.36-.357 2.64-1.071 3.841-.702 1.202-1.773 2.392-3.213 3.57l-5.372 4.726h10.251v4.488h-17.493zm28.799-1.139h-11.407v-3.995L273.533 1.68h2.499l1.972.323-9.639 14.415h6.715V1.68h4.658v14.738h3.4v4.063h-3.4v4.998h-5.1z"/><path fill="#7f52ff" d="M4.1 23.9a14.001 14.001 0 0 0 19.8 0l9.9-9.9-9.9-9.9A14 14 0 0 0 4.1 23.9z"/><path fill="#fff" d="M20.018 17.286a4.055 4.055 0 1 1 0-8.11 4.055 4.055 0 0 1 0 8.11z"/><path fill="#000" d="M21.545 15.757a2.528 2.528 0 1 1 0-5.055 2.528 2.528 0 0 1 0 5.055z"/></svg>